ISO-10303-21;
HEADER;
/* Generated by software containing ST-Developer
 * from STEP Tools, Inc. (www.steptools.com) 
 */
/* OPTION: using custom renumber hook */

FILE_DESCRIPTION(
/* description */ ('STEP AP242 Edition 2',
'CAx-IF Rec.Pracs.---Representation and Presentation of Product Manufa
cturing Information (PMI)---4.0---2014-10-13',
'CAx-IF Rec.Pracs.---3D Tessellated Geometry---0.4---2014-09-14','2;1',
'CAx-IF Rec.Pracs.---User Defined Attributes---1.5---2016-08-15'),
/* implementation_level */ '2;1');

FILE_NAME(
/* name */ 'hackpad - Part 156',
/* time_stamp */ '2026-10-03T09:53:45Z',
/* author */ (''),
/* organization */ (''),
/* preprocessor_version */ 'ST-DEVELOPER v20',
/* originating_system */ 'ONSHAPE BY PTC INC, 1.221',
/* authorisation */ '  ');

FILE_SCHEMA (('AP242_MANAGED_MODEL_BASED_3D_ENGINEERING_MIM_LF { 1 0 10303 442 3 1 4 }'));
ENDSEC;

DATA;
#10=SHAPE_REPRESENTATION_RELATIONSHIP('','',#693,#11);
#11=ADVANCED_BREP_SHAPE_REPRESENTATION('',(#691),#1195);
#12=CONICAL_SURFACE('',#771,0.200000000000006,0.785398163397445);
#13=CONICAL_SURFACE('',#772,0.200000000000006,0.785398163397445);
#14=CONICAL_SURFACE('',#775,0.200000000000006,0.785398163397445);
#15=CONICAL_SURFACE('',#776,0.200000000000006,0.785398163397445);
#16=CONICAL_SURFACE('',#778,2.1,0.785398163397448);
#17=CONICAL_SURFACE('',#779,2.1,0.785398163397449);
#18=CONICAL_SURFACE('',#780,2.1,0.785398163397449);
#19=CONICAL_SURFACE('',#781,2.1,0.785398163397448);
#20=CYLINDRICAL_SURFACE('',#726,3.5);
#21=CYLINDRICAL_SURFACE('',#727,3.5);
#22=CYLINDRICAL_SURFACE('',#728,3.5);
#23=CYLINDRICAL_SURFACE('',#729,3.5);
#24=CYLINDRICAL_SURFACE('',#730,2.1);
#25=CYLINDRICAL_SURFACE('',#735,2.1);
#26=CYLINDRICAL_SURFACE('',#740,2.1);
#27=CYLINDRICAL_SURFACE('',#745,2.1);
#28=CYLINDRICAL_SURFACE('',#752,1.6);
#29=CYLINDRICAL_SURFACE('',#755,1.6);
#30=CYLINDRICAL_SURFACE('',#758,1.6);
#31=CYLINDRICAL_SURFACE('',#761,1.6);
#32=CYLINDRICAL_SURFACE('',#762,1.);
#33=CYLINDRICAL_SURFACE('',#764,1.);
#34=CYLINDRICAL_SURFACE('',#766,1.);
#35=CYLINDRICAL_SURFACE('',#768,1.);
#36=CIRCLE('',#700,3.5);
#37=CIRCLE('',#701,3.5);
#38=CIRCLE('',#702,3.5);
#39=CIRCLE('',#703,3.5);
#40=CIRCLE('',#705,2.6);
#41=CIRCLE('',#706,2.6);
#42=CIRCLE('',#707,2.6);
#43=CIRCLE('',#708,2.6);
#44=CIRCLE('',#709,3.5);
#45=CIRCLE('',#710,3.5);
#46=CIRCLE('',#711,3.5);
#47=CIRCLE('',#712,3.5);
#48=CIRCLE('',#713,1.);
#49=CIRCLE('',#714,1.);
#50=CIRCLE('',#715,1.);
#51=CIRCLE('',#716,1.);
#52=CIRCLE('',#722,0.200000000000006);
#53=CIRCLE('',#723,0.200000000000006);
#54=CIRCLE('',#724,0.200000000000006);
#55=CIRCLE('',#725,0.200000000000006);
#56=CIRCLE('',#731,2.1);
#57=CIRCLE('',#732,2.1);
#58=CIRCLE('',#734,1.6);
#59=CIRCLE('',#736,2.1);
#60=CIRCLE('',#737,2.1);
#61=CIRCLE('',#739,1.6);
#62=CIRCLE('',#741,2.1);
#63=CIRCLE('',#742,2.1);
#64=CIRCLE('',#744,1.6);
#65=CIRCLE('',#746,2.1);
#66=CIRCLE('',#747,2.1);
#67=CIRCLE('',#749,1.6);
#68=CIRCLE('',#751,1.6);
#69=CIRCLE('',#754,1.6);
#70=CIRCLE('',#757,1.6);
#71=CIRCLE('',#760,1.6);
#72=CIRCLE('',#763,1.);
#73=CIRCLE('',#765,1.);
#74=CIRCLE('',#767,1.);
#75=CIRCLE('',#769,1.);
#76=ORIENTED_EDGE('',*,*,#244,.T.);
#77=ORIENTED_EDGE('',*,*,#245,.T.);
#78=ORIENTED_EDGE('',*,*,#246,.F.);
#79=ORIENTED_EDGE('',*,*,#247,.T.);
#80=ORIENTED_EDGE('',*,*,#248,.T.);
#81=ORIENTED_EDGE('',*,*,#249,.T.);
#82=ORIENTED_EDGE('',*,*,#250,.F.);
#83=ORIENTED_EDGE('',*,*,#251,.T.);
#84=ORIENTED_EDGE('',*,*,#252,.F.);
#85=ORIENTED_EDGE('',*,*,#253,.T.);
#86=ORIENTED_EDGE('',*,*,#254,.T.);
#87=ORIENTED_EDGE('',*,*,#255,.T.);
#88=ORIENTED_EDGE('',*,*,#256,.T.);
#89=ORIENTED_EDGE('',*,*,#257,.T.);
#90=ORIENTED_EDGE('',*,*,#258,.F.);
#91=ORIENTED_EDGE('',*,*,#259,.T.);
#92=ORIENTED_EDGE('',*,*,#260,.F.);
#93=ORIENTED_EDGE('',*,*,#256,.F.);
#94=ORIENTED_EDGE('',*,*,#261,.F.);
#95=ORIENTED_EDGE('',*,*,#244,.F.);
#96=ORIENTED_EDGE('',*,*,#262,.F.);
#97=ORIENTED_EDGE('',*,*,#248,.F.);
#98=ORIENTED_EDGE('',*,*,#263,.F.);
#99=ORIENTED_EDGE('',*,*,#254,.F.);
#100=ORIENTED_EDGE('',*,*,#264,.T.);
#101=ORIENTED_EDGE('',*,*,#265,.T.);
#102=ORIENTED_EDGE('',*,*,#266,.T.);
#103=ORIENTED_EDGE('',*,*,#267,.T.);
#104=ORIENTED_EDGE('',*,*,#268,.T.);
#105=ORIENTED_EDGE('',*,*,#250,.T.);
#106=ORIENTED_EDGE('',*,*,#269,.T.);
#107=ORIENTED_EDGE('',*,*,#246,.T.);
#108=ORIENTED_EDGE('',*,*,#270,.T.);
#109=ORIENTED_EDGE('',*,*,#258,.T.);
#110=ORIENTED_EDGE('',*,*,#271,.T.);
#111=ORIENTED_EDGE('',*,*,#252,.T.);
#112=ORIENTED_EDGE('',*,*,#272,.F.);
#113=ORIENTED_EDGE('',*,*,#273,.T.);
#114=ORIENTED_EDGE('',*,*,#274,.F.);
#115=ORIENTED_EDGE('',*,*,#275,.T.);
#116=ORIENTED_EDGE('',*,*,#276,.F.);
#117=ORIENTED_EDGE('',*,*,#277,.T.);
#118=ORIENTED_EDGE('',*,*,#278,.F.);
#119=ORIENTED_EDGE('',*,*,#279,.T.);
#120=ORIENTED_EDGE('',*,*,#280,.T.);
#121=ORIENTED_EDGE('',*,*,#281,.T.);
#122=ORIENTED_EDGE('',*,*,#282,.T.);
#123=ORIENTED_EDGE('',*,*,#274,.T.);
#124=ORIENTED_EDGE('',*,*,#283,.T.);
#125=ORIENTED_EDGE('',*,*,#284,.T.);
#126=ORIENTED_EDGE('',*,*,#285,.T.);
#127=ORIENTED_EDGE('',*,*,#276,.T.);
#128=ORIENTED_EDGE('',*,*,#286,.T.);
#129=ORIENTED_EDGE('',*,*,#287,.T.);
#130=ORIENTED_EDGE('',*,*,#288,.T.);
#131=ORIENTED_EDGE('',*,*,#278,.T.);
#132=ORIENTED_EDGE('',*,*,#289,.T.);
#133=ORIENTED_EDGE('',*,*,#290,.T.);
#134=ORIENTED_EDGE('',*,*,#291,.T.);
#135=ORIENTED_EDGE('',*,*,#272,.T.);
#136=ORIENTED_EDGE('',*,*,#292,.T.);
#137=ORIENTED_EDGE('',*,*,#293,.T.);
#138=ORIENTED_EDGE('',*,*,#294,.T.);
#139=ORIENTED_EDGE('',*,*,#295,.T.);
#140=ORIENTED_EDGE('',*,*,#296,.T.);
#141=ORIENTED_EDGE('',*,*,#297,.T.);
#142=ORIENTED_EDGE('',*,*,#298,.T.);
#143=ORIENTED_EDGE('',*,*,#299,.T.);
#144=ORIENTED_EDGE('',*,*,#251,.F.);
#145=ORIENTED_EDGE('',*,*,#268,.F.);
#146=ORIENTED_EDGE('',*,*,#255,.F.);
#147=ORIENTED_EDGE('',*,*,#263,.T.);
#148=ORIENTED_EDGE('',*,*,#247,.F.);
#149=ORIENTED_EDGE('',*,*,#269,.F.);
#150=ORIENTED_EDGE('',*,*,#249,.F.);
#151=ORIENTED_EDGE('',*,*,#262,.T.);
#152=ORIENTED_EDGE('',*,*,#245,.F.);
#153=ORIENTED_EDGE('',*,*,#261,.T.);
#154=ORIENTED_EDGE('',*,*,#259,.F.);
#155=ORIENTED_EDGE('',*,*,#270,.F.);
#156=ORIENTED_EDGE('',*,*,#253,.F.);
#157=ORIENTED_EDGE('',*,*,#271,.F.);
#158=ORIENTED_EDGE('',*,*,#257,.F.);
#159=ORIENTED_EDGE('',*,*,#260,.T.);
#160=ORIENTED_EDGE('',*,*,#300,.T.);
#161=ORIENTED_EDGE('',*,*,#301,.F.);
#162=ORIENTED_EDGE('',*,*,#302,.F.);
#163=ORIENTED_EDGE('',*,*,#301,.T.);
#164=ORIENTED_EDGE('',*,*,#303,.T.);
#165=ORIENTED_EDGE('',*,*,#304,.F.);
#166=ORIENTED_EDGE('',*,*,#305,.F.);
#167=ORIENTED_EDGE('',*,*,#304,.T.);
#168=ORIENTED_EDGE('',*,*,#306,.T.);
#169=ORIENTED_EDGE('',*,*,#307,.F.);
#170=ORIENTED_EDGE('',*,*,#308,.F.);
#171=ORIENTED_EDGE('',*,*,#307,.T.);
#172=ORIENTED_EDGE('',*,*,#309,.T.);
#173=ORIENTED_EDGE('',*,*,#310,.F.);
#174=ORIENTED_EDGE('',*,*,#311,.F.);
#175=ORIENTED_EDGE('',*,*,#310,.T.);
#176=ORIENTED_EDGE('',*,*,#312,.F.);
#177=ORIENTED_EDGE('',*,*,#312,.T.);
#178=ORIENTED_EDGE('',*,*,#302,.T.);
#179=ORIENTED_EDGE('',*,*,#313,.F.);
#180=ORIENTED_EDGE('',*,*,#313,.T.);
#181=ORIENTED_EDGE('',*,*,#305,.T.);
#182=ORIENTED_EDGE('',*,*,#314,.F.);
#183=ORIENTED_EDGE('',*,*,#314,.T.);
#184=ORIENTED_EDGE('',*,*,#308,.T.);
#185=ORIENTED_EDGE('',*,*,#315,.F.);
#186=ORIENTED_EDGE('',*,*,#315,.T.);
#187=ORIENTED_EDGE('',*,*,#311,.T.);
#188=ORIENTED_EDGE('',*,*,#291,.F.);
#189=ORIENTED_EDGE('',*,*,#316,.T.);
#190=ORIENTED_EDGE('',*,*,#280,.F.);
#191=ORIENTED_EDGE('',*,*,#273,.F.);
#192=ORIENTED_EDGE('',*,*,#288,.F.);
#193=ORIENTED_EDGE('',*,*,#317,.T.);
#194=ORIENTED_EDGE('',*,*,#289,.F.);
#195=ORIENTED_EDGE('',*,*,#279,.F.);
#196=ORIENTED_EDGE('',*,*,#285,.F.);
#197=ORIENTED_EDGE('',*,*,#318,.T.);
#198=ORIENTED_EDGE('',*,*,#286,.F.);
#199=ORIENTED_EDGE('',*,*,#277,.F.);
#200=ORIENTED_EDGE('',*,*,#282,.F.);
#201=ORIENTED_EDGE('',*,*,#319,.T.);
#202=ORIENTED_EDGE('',*,*,#283,.F.);
#203=ORIENTED_EDGE('',*,*,#275,.F.);
#204=ORIENTED_EDGE('',*,*,#320,.F.);
#205=ORIENTED_EDGE('',*,*,#284,.F.);
#206=ORIENTED_EDGE('',*,*,#321,.F.);
#207=ORIENTED_EDGE('',*,*,#297,.F.);
#208=ORIENTED_EDGE('',*,*,#321,.T.);
#209=ORIENTED_EDGE('',*,*,#319,.F.);
#210=ORIENTED_EDGE('',*,*,#322,.F.);
#211=ORIENTED_EDGE('',*,*,#298,.F.);
#212=ORIENTED_EDGE('',*,*,#320,.T.);
#213=ORIENTED_EDGE('',*,*,#296,.F.);
#214=ORIENTED_EDGE('',*,*,#323,.F.);
#215=ORIENTED_EDGE('',*,*,#318,.F.);
#216=ORIENTED_EDGE('',*,*,#322,.T.);
#217=ORIENTED_EDGE('',*,*,#281,.F.);
#218=ORIENTED_EDGE('',*,*,#324,.F.);
#219=ORIENTED_EDGE('',*,*,#299,.F.);
#220=ORIENTED_EDGE('',*,*,#323,.T.);
#221=ORIENTED_EDGE('',*,*,#295,.F.);
#222=ORIENTED_EDGE('',*,*,#325,.F.);
#223=ORIENTED_EDGE('',*,*,#287,.F.);
#224=ORIENTED_EDGE('',*,*,#324,.T.);
#225=ORIENTED_EDGE('',*,*,#316,.F.);
#226=ORIENTED_EDGE('',*,*,#326,.F.);
#227=ORIENTED_EDGE('',*,*,#292,.F.);
#228=ORIENTED_EDGE('',*,*,#325,.T.);
#229=ORIENTED_EDGE('',*,*,#294,.F.);
#230=ORIENTED_EDGE('',*,*,#327,.F.);
#231=ORIENTED_EDGE('',*,*,#317,.F.);
#232=ORIENTED_EDGE('',*,*,#326,.T.);
#233=ORIENTED_EDGE('',*,*,#290,.F.);
#234=ORIENTED_EDGE('',*,*,#327,.T.);
#235=ORIENTED_EDGE('',*,*,#293,.F.);
#236=ORIENTED_EDGE('',*,*,#264,.F.);
#237=ORIENTED_EDGE('',*,*,#300,.F.);
#238=ORIENTED_EDGE('',*,*,#265,.F.);
#239=ORIENTED_EDGE('',*,*,#309,.F.);
#240=ORIENTED_EDGE('',*,*,#266,.F.);
#241=ORIENTED_EDGE('',*,*,#306,.F.);
#242=ORIENTED_EDGE('',*,*,#267,.F.);
#243=ORIENTED_EDGE('',*,*,#303,.F.);
#244=EDGE_CURVE('',#328,#329,#388,.T.);
#245=EDGE_CURVE('',#329,#330,#389,.F.);
#246=EDGE_CURVE('',#331,#330,#390,.T.);
#247=EDGE_CURVE('',#331,#328,#391,.T.);
#248=EDGE_CURVE('',#332,#333,#392,.T.);
#249=EDGE_CURVE('',#333,#334,#393,.F.);
#250=EDGE_CURVE('',#335,#334,#394,.T.);
#251=EDGE_CURVE('',#335,#332,#395,.T.);
#252=EDGE_CURVE('',#336,#337,#396,.T.);
#253=EDGE_CURVE('',#336,#338,#397,.T.);
#254=EDGE_CURVE('',#338,#339,#398,.T.);
#255=EDGE_CURVE('',#339,#337,#399,.F.);
#256=EDGE_CURVE('',#340,#341,#400,.T.);
#257=EDGE_CURVE('',#341,#342,#401,.F.);
#258=EDGE_CURVE('',#343,#342,#402,.T.);
#259=EDGE_CURVE('',#343,#340,#403,.T.);
#260=EDGE_CURVE('',#341,#338,#36,.T.);
#261=EDGE_CURVE('',#329,#340,#37,.T.);
#262=EDGE_CURVE('',#333,#328,#38,.T.);
#263=EDGE_CURVE('',#339,#332,#39,.T.);
#264=EDGE_CURVE('',#344,#344,#40,.F.);
#265=EDGE_CURVE('',#345,#345,#41,.F.);
#266=EDGE_CURVE('',#346,#346,#42,.F.);
#267=EDGE_CURVE('',#347,#347,#43,.F.);
#268=EDGE_CURVE('',#337,#335,#44,.T.);
#269=EDGE_CURVE('',#334,#331,#45,.T.);
#270=EDGE_CURVE('',#330,#343,#46,.T.);
#271=EDGE_CURVE('',#342,#336,#47,.T.);
#272=EDGE_CURVE('',#348,#349,#404,.T.);
#273=EDGE_CURVE('',#348,#350,#48,.T.);
#274=EDGE_CURVE('',#351,#350,#405,.T.);
#275=EDGE_CURVE('',#351,#352,#49,.T.);
#276=EDGE_CURVE('',#353,#352,#406,.T.);
#277=EDGE_CURVE('',#353,#354,#50,.T.);
#278=EDGE_CURVE('',#355,#354,#407,.T.);
#279=EDGE_CURVE('',#355,#349,#51,.T.);
#280=EDGE_CURVE('',#350,#356,#408,.F.);
#281=EDGE_CURVE('',#356,#357,#409,.T.);
#282=EDGE_CURVE('',#357,#351,#410,.T.);
#283=EDGE_CURVE('',#352,#358,#411,.F.);
#284=EDGE_CURVE('',#358,#359,#412,.T.);
#285=EDGE_CURVE('',#359,#353,#413,.T.);
#286=EDGE_CURVE('',#354,#360,#414,.F.);
#287=EDGE_CURVE('',#360,#361,#415,.T.);
#288=EDGE_CURVE('',#361,#355,#416,.T.);
#289=EDGE_CURVE('',#349,#362,#417,.F.);
#290=EDGE_CURVE('',#362,#363,#418,.T.);
#291=EDGE_CURVE('',#363,#348,#419,.T.);
#292=EDGE_CURVE('',#364,#365,#52,.F.);
#293=EDGE_CURVE('',#365,#366,#420,.T.);
#294=EDGE_CURVE('',#366,#367,#53,.F.);
#295=EDGE_CURVE('',#367,#368,#421,.T.);
#296=EDGE_CURVE('',#368,#369,#54,.F.);
#297=EDGE_CURVE('',#369,#370,#422,.T.);
#298=EDGE_CURVE('',#370,#371,#55,.F.);
#299=EDGE_CURVE('',#371,#364,#423,.T.);
#300=EDGE_CURVE('',#372,#372,#56,.T.);
#301=EDGE_CURVE('',#373,#373,#57,.T.);
#302=EDGE_CURVE('',#374,#374,#58,.T.);
#303=EDGE_CURVE('',#375,#375,#59,.T.);
#304=EDGE_CURVE('',#376,#376,#60,.T.);
#305=EDGE_CURVE('',#377,#377,#61,.T.);
#306=EDGE_CURVE('',#378,#378,#62,.T.);
#307=EDGE_CURVE('',#379,#379,#63,.T.);
#308=EDGE_CURVE('',#380,#380,#64,.T.);
#309=EDGE_CURVE('',#381,#381,#65,.T.);
#310=EDGE_CURVE('',#382,#382,#66,.T.);
#311=EDGE_CURVE('',#383,#383,#67,.T.);
#312=EDGE_CURVE('',#384,#384,#68,.F.);
#313=EDGE_CURVE('',#385,#385,#69,.F.);
#314=EDGE_CURVE('',#386,#386,#70,.F.);
#315=EDGE_CURVE('',#387,#387,#71,.F.);
#316=EDGE_CURVE('',#363,#356,#72,.T.);
#317=EDGE_CURVE('',#361,#362,#73,.T.);
#318=EDGE_CURVE('',#359,#360,#74,.T.);
#319=EDGE_CURVE('',#357,#358,#75,.T.);
#320=EDGE_CURVE('',#359,#369,#424,.T.);
#321=EDGE_CURVE('',#370,#358,#425,.T.);
#322=EDGE_CURVE('',#371,#357,#426,.T.);
#323=EDGE_CURVE('',#360,#368,#427,.T.);
#324=EDGE_CURVE('',#364,#356,#428,.T.);
#325=EDGE_CURVE('',#361,#367,#429,.T.);
#326=EDGE_CURVE('',#365,#363,#430,.T.);
#327=EDGE_CURVE('',#362,#366,#431,.T.);
#328=VERTEX_POINT('',#1005);
#329=VERTEX_POINT('',#1006);
#330=VERTEX_POINT('',#1008);
#331=VERTEX_POINT('',#1010);
#332=VERTEX_POINT('',#1014);
#333=VERTEX_POINT('',#1015);
#334=VERTEX_POINT('',#1017);
#335=VERTEX_POINT('',#1019);
#336=VERTEX_POINT('',#1023);
#337=VERTEX_POINT('',#1024);
#338=VERTEX_POINT('',#1026);
#339=VERTEX_POINT('',#1028);
#340=VERTEX_POINT('',#1032);
#341=VERTEX_POINT('',#1033);
#342=VERTEX_POINT('',#1035);
#343=VERTEX_POINT('',#1037);
#344=VERTEX_POINT('',#1046);
#345=VERTEX_POINT('',#1048);
#346=VERTEX_POINT('',#1050);
#347=VERTEX_POINT('',#1052);
#348=VERTEX_POINT('',#1058);
#349=VERTEX_POINT('',#1059);
#350=VERTEX_POINT('',#1061);
#351=VERTEX_POINT('',#1063);
#352=VERTEX_POINT('',#1065);
#353=VERTEX_POINT('',#1067);
#354=VERTEX_POINT('',#1069);
#355=VERTEX_POINT('',#1071);
#356=VERTEX_POINT('',#1075);
#357=VERTEX_POINT('',#1077);
#358=VERTEX_POINT('',#1081);
#359=VERTEX_POINT('',#1083);
#360=VERTEX_POINT('',#1087);
#361=VERTEX_POINT('',#1089);
#362=VERTEX_POINT('',#1093);
#363=VERTEX_POINT('',#1095);
#364=VERTEX_POINT('',#1099);
#365=VERTEX_POINT('',#1100);
#366=VERTEX_POINT('',#1102);
#367=VERTEX_POINT('',#1104);
#368=VERTEX_POINT('',#1106);
#369=VERTEX_POINT('',#1108);
#370=VERTEX_POINT('',#1110);
#371=VERTEX_POINT('',#1112);
#372=VERTEX_POINT('',#1120);
#373=VERTEX_POINT('',#1122);
#374=VERTEX_POINT('',#1125);
#375=VERTEX_POINT('',#1128);
#376=VERTEX_POINT('',#1130);
#377=VERTEX_POINT('',#1133);
#378=VERTEX_POINT('',#1136);
#379=VERTEX_POINT('',#1138);
#380=VERTEX_POINT('',#1141);
#381=VERTEX_POINT('',#1144);
#382=VERTEX_POINT('',#1146);
#383=VERTEX_POINT('',#1149);
#384=VERTEX_POINT('',#1152);
#385=VERTEX_POINT('',#1156);
#386=VERTEX_POINT('',#1160);
#387=VERTEX_POINT('',#1164);
#388=LINE('',#1004,#432);
#389=LINE('',#1007,#433);
#390=LINE('',#1009,#434);
#391=LINE('',#1011,#435);
#392=LINE('',#1013,#436);
#393=LINE('',#1016,#437);
#394=LINE('',#1018,#438);
#395=LINE('',#1020,#439);
#396=LINE('',#1022,#440);
#397=LINE('',#1025,#441);
#398=LINE('',#1027,#442);
#399=LINE('',#1029,#443);
#400=LINE('',#1031,#444);
#401=LINE('',#1034,#445);
#402=LINE('',#1036,#446);
#403=LINE('',#1038,#447);
#404=LINE('',#1057,#448);
#405=LINE('',#1062,#449);
#406=LINE('',#1066,#450);
#407=LINE('',#1070,#451);
#408=LINE('',#1074,#452);
#409=LINE('',#1076,#453);
#410=LINE('',#1078,#454);
#411=LINE('',#1080,#455);
#412=LINE('',#1082,#456);
#413=LINE('',#1084,#457);
#414=LINE('',#1086,#458);
#415=LINE('',#1088,#459);
#416=LINE('',#1090,#460);
#417=LINE('',#1092,#461);
#418=LINE('',#1094,#462);
#419=LINE('',#1096,#463);
#420=LINE('',#1101,#464);
#421=LINE('',#1105,#465);
#422=LINE('',#1109,#466);
#423=LINE('',#1113,#467);
#424=LINE('',#1175,#468);
#425=LINE('',#1176,#469);
#426=LINE('',#1178,#470);
#427=LINE('',#1180,#471);
#428=LINE('',#1182,#472);
#429=LINE('',#1184,#473);
#430=LINE('',#1186,#474);
#431=LINE('',#1188,#475);
#432=VECTOR('',#786,1000.);
#433=VECTOR('',#787,1000.);
#434=VECTOR('',#788,1000.);
#435=VECTOR('',#789,1000.);
#436=VECTOR('',#792,1000.);
#437=VECTOR('',#793,1000.);
#438=VECTOR('',#794,1000.);
#439=VECTOR('',#795,1000.);
#440=VECTOR('',#798,1000.);
#441=VECTOR('',#799,1000.);
#442=VECTOR('',#800,1000.);
#443=VECTOR('',#801,1000.);
#444=VECTOR('',#804,1000.);
#445=VECTOR('',#805,1000.);
#446=VECTOR('',#806,1000.);
#447=VECTOR('',#807,1000.);
#448=VECTOR('',#836,1000.);
#449=VECTOR('',#839,1000.);
#450=VECTOR('',#842,1000.);
#451=VECTOR('',#845,1000.);
#452=VECTOR('',#850,1000.);
#453=VECTOR('',#851,1000.);
#454=VECTOR('',#852,1000.);
#455=VECTOR('',#855,1000.);
#456=VECTOR('',#856,1000.);
#457=VECTOR('',#857,1000.);
#458=VECTOR('',#860,1000.);
#459=VECTOR('',#861,1000.);
#460=VECTOR('',#862,1000.);
#461=VECTOR('',#865,1000.);
#462=VECTOR('',#866,1000.);
#463=VECTOR('',#867,1000.);
#464=VECTOR('',#872,1000.);
#465=VECTOR('',#875,1000.);
#466=VECTOR('',#878,1000.);
#467=VECTOR('',#881,1000.);
#468=VECTOR('',#972,1000.);
#469=VECTOR('',#973,1000.);
#470=VECTOR('',#976,1000.);
#471=VECTOR('',#979,1000.);
#472=VECTOR('',#982,1000.);
#473=VECTOR('',#985,1000.);
#474=VECTOR('',#988,1000.);
#475=VECTOR('',#991,1000.);
#476=EDGE_LOOP('',(#76,#77,#78,#79));
#477=EDGE_LOOP('',(#80,#81,#82,#83));
#478=EDGE_LOOP('',(#84,#85,#86,#87));
#479=EDGE_LOOP('',(#88,#89,#90,#91));
#480=EDGE_LOOP('',(#92,#93,#94,#95,#96,#97,#98,#99));
#481=EDGE_LOOP('',(#100));
#482=EDGE_LOOP('',(#101));
#483=EDGE_LOOP('',(#102));
#484=EDGE_LOOP('',(#103));
#485=EDGE_LOOP('',(#104,#105,#106,#107,#108,#109,#110,#111));
#486=EDGE_LOOP('',(#112,#113,#114,#115,#116,#117,#118,#119));
#487=EDGE_LOOP('',(#120,#121,#122,#123));
#488=EDGE_LOOP('',(#124,#125,#126,#127));
#489=EDGE_LOOP('',(#128,#129,#130,#131));
#490=EDGE_LOOP('',(#132,#133,#134,#135));
#491=EDGE_LOOP('',(#136,#137,#138,#139,#140,#141,#142,#143));
#492=EDGE_LOOP('',(#144,#145,#146,#147));
#493=EDGE_LOOP('',(#148,#149,#150,#151));
#494=EDGE_LOOP('',(#152,#153,#154,#155));
#495=EDGE_LOOP('',(#156,#157,#158,#159));
#496=EDGE_LOOP('',(#160));
#497=EDGE_LOOP('',(#161));
#498=EDGE_LOOP('',(#162));
#499=EDGE_LOOP('',(#163));
#500=EDGE_LOOP('',(#164));
#501=EDGE_LOOP('',(#165));
#502=EDGE_LOOP('',(#166));
#503=EDGE_LOOP('',(#167));
#504=EDGE_LOOP('',(#168));
#505=EDGE_LOOP('',(#169));
#506=EDGE_LOOP('',(#170));
#507=EDGE_LOOP('',(#171));
#508=EDGE_LOOP('',(#172));
#509=EDGE_LOOP('',(#173));
#510=EDGE_LOOP('',(#174));
#511=EDGE_LOOP('',(#175));
#512=EDGE_LOOP('',(#176));
#513=EDGE_LOOP('',(#177));
#514=EDGE_LOOP('',(#178));
#515=EDGE_LOOP('',(#179));
#516=EDGE_LOOP('',(#180));
#517=EDGE_LOOP('',(#181));
#518=EDGE_LOOP('',(#182));
#519=EDGE_LOOP('',(#183));
#520=EDGE_LOOP('',(#184));
#521=EDGE_LOOP('',(#185));
#522=EDGE_LOOP('',(#186));
#523=EDGE_LOOP('',(#187));
#524=EDGE_LOOP('',(#188,#189,#190,#191));
#525=EDGE_LOOP('',(#192,#193,#194,#195));
#526=EDGE_LOOP('',(#196,#197,#198,#199));
#527=EDGE_LOOP('',(#200,#201,#202,#203));
#528=EDGE_LOOP('',(#204,#205,#206,#207));
#529=EDGE_LOOP('',(#208,#209,#210,#211));
#530=EDGE_LOOP('',(#212,#213,#214,#215));
#531=EDGE_LOOP('',(#216,#217,#218,#219));
#532=EDGE_LOOP('',(#220,#221,#222,#223));
#533=EDGE_LOOP('',(#224,#225,#226,#227));
#534=EDGE_LOOP('',(#228,#229,#230,#231));
#535=EDGE_LOOP('',(#232,#233,#234,#235));
#536=EDGE_LOOP('',(#236));
#537=EDGE_LOOP('',(#237));
#538=EDGE_LOOP('',(#238));
#539=EDGE_LOOP('',(#239));
#540=EDGE_LOOP('',(#240));
#541=EDGE_LOOP('',(#241));
#542=EDGE_LOOP('',(#242));
#543=EDGE_LOOP('',(#243));
#544=FACE_BOUND('',#476,.T.);
#545=FACE_BOUND('',#477,.T.);
#546=FACE_BOUND('',#478,.T.);
#547=FACE_BOUND('',#479,.T.);
#548=FACE_BOUND('',#480,.T.);
#549=FACE_BOUND('',#481,.T.);
#550=FACE_BOUND('',#482,.T.);
#551=FACE_BOUND('',#483,.T.);
#552=FACE_BOUND('',#484,.T.);
#553=FACE_BOUND('',#485,.T.);
#554=FACE_BOUND('',#486,.T.);
#555=FACE_BOUND('',#487,.T.);
#556=FACE_BOUND('',#488,.T.);
#557=FACE_BOUND('',#489,.T.);
#558=FACE_BOUND('',#490,.T.);
#559=FACE_BOUND('',#491,.T.);
#560=FACE_BOUND('',#492,.T.);
#561=FACE_BOUND('',#493,.T.);
#562=FACE_BOUND('',#494,.T.);
#563=FACE_BOUND('',#495,.T.);
#564=FACE_BOUND('',#496,.T.);
#565=FACE_BOUND('',#497,.T.);
#566=FACE_BOUND('',#498,.T.);
#567=FACE_BOUND('',#499,.T.);
#568=FACE_BOUND('',#500,.T.);
#569=FACE_BOUND('',#501,.T.);
#570=FACE_BOUND('',#502,.T.);
#571=FACE_BOUND('',#503,.T.);
#572=FACE_BOUND('',#504,.T.);
#573=FACE_BOUND('',#505,.T.);
#574=FACE_BOUND('',#506,.T.);
#575=FACE_BOUND('',#507,.T.);
#576=FACE_BOUND('',#508,.T.);
#577=FACE_BOUND('',#509,.T.);
#578=FACE_BOUND('',#510,.T.);
#579=FACE_BOUND('',#511,.T.);
#580=FACE_BOUND('',#512,.T.);
#581=FACE_BOUND('',#513,.T.);
#582=FACE_BOUND('',#514,.T.);
#583=FACE_BOUND('',#515,.T.);
#584=FACE_BOUND('',#516,.T.);
#585=FACE_BOUND('',#517,.T.);
#586=FACE_BOUND('',#518,.T.);
#587=FACE_BOUND('',#519,.T.);
#588=FACE_BOUND('',#520,.T.);
#589=FACE_BOUND('',#521,.T.);
#590=FACE_BOUND('',#522,.T.);
#591=FACE_BOUND('',#523,.T.);
#592=FACE_BOUND('',#524,.T.);
#593=FACE_BOUND('',#525,.T.);
#594=FACE_BOUND('',#526,.T.);
#595=FACE_BOUND('',#527,.T.);
#596=FACE_BOUND('',#528,.T.);
#597=FACE_BOUND('',#529,.T.);
#598=FACE_BOUND('',#530,.T.);
#599=FACE_BOUND('',#531,.T.);
#600=FACE_BOUND('',#532,.T.);
#601=FACE_BOUND('',#533,.T.);
#602=FACE_BOUND('',#534,.T.);
#603=FACE_BOUND('',#535,.T.);
#604=FACE_BOUND('',#536,.T.);
#605=FACE_BOUND('',#537,.T.);
#606=FACE_BOUND('',#538,.T.);
#607=FACE_BOUND('',#539,.T.);
#608=FACE_BOUND('',#540,.T.);
#609=FACE_BOUND('',#541,.T.);
#610=FACE_BOUND('',#542,.T.);
#611=FACE_BOUND('',#543,.T.);
#612=PLANE('',#695);
#613=PLANE('',#696);
#614=PLANE('',#697);
#615=PLANE('',#698);
#616=PLANE('',#699);
#617=PLANE('',#704);
#618=PLANE('',#717);
#619=PLANE('',#718);
#620=PLANE('',#719);
#621=PLANE('',#720);
#622=PLANE('',#721);
#623=PLANE('',#733);
#624=PLANE('',#738);
#625=PLANE('',#743);
#626=PLANE('',#748);
#627=PLANE('',#750);
#628=PLANE('',#753);
#629=PLANE('',#756);
#630=PLANE('',#759);
#631=PLANE('',#770);
#632=PLANE('',#773);
#633=PLANE('',#774);
#634=PLANE('',#777);
#635=ADVANCED_FACE('',(#544),#612,.T.);
#636=ADVANCED_FACE('',(#545),#613,.T.);
#637=ADVANCED_FACE('',(#546),#614,.T.);
#638=ADVANCED_FACE('',(#547),#615,.T.);
#639=ADVANCED_FACE('',(#548),#616,.T.);
#640=ADVANCED_FACE('',(#549,#550,#551,#552,#553,#554),#617,.T.);
#641=ADVANCED_FACE('',(#555),#618,.F.);
#642=ADVANCED_FACE('',(#556),#619,.F.);
#643=ADVANCED_FACE('',(#557),#620,.F.);
#644=ADVANCED_FACE('',(#558),#621,.F.);
#645=ADVANCED_FACE('',(#559),#622,.F.);
#646=ADVANCED_FACE('',(#560),#20,.T.);
#647=ADVANCED_FACE('',(#561),#21,.T.);
#648=ADVANCED_FACE('',(#562),#22,.T.);
#649=ADVANCED_FACE('',(#563),#23,.T.);
#650=ADVANCED_FACE('',(#564,#565),#24,.F.);
#651=ADVANCED_FACE('',(#566,#567),#623,.T.);
#652=ADVANCED_FACE('',(#568,#569),#25,.F.);
#653=ADVANCED_FACE('',(#570,#571),#624,.T.);
#654=ADVANCED_FACE('',(#572,#573),#26,.F.);
#655=ADVANCED_FACE('',(#574,#575),#625,.T.);
#656=ADVANCED_FACE('',(#576,#577),#27,.F.);
#657=ADVANCED_FACE('',(#578,#579),#626,.T.);
#658=ADVANCED_FACE('',(#580),#627,.T.);
#659=ADVANCED_FACE('',(#581,#582),#28,.F.);
#660=ADVANCED_FACE('',(#583),#628,.T.);
#661=ADVANCED_FACE('',(#584,#585),#29,.F.);
#662=ADVANCED_FACE('',(#586),#629,.T.);
#663=ADVANCED_FACE('',(#587,#588),#30,.F.);
#664=ADVANCED_FACE('',(#589),#630,.T.);
#665=ADVANCED_FACE('',(#590,#591),#31,.F.);
#666=ADVANCED_FACE('',(#592),#32,.T.);
#667=ADVANCED_FACE('',(#593),#33,.T.);
#668=ADVANCED_FACE('',(#594),#34,.T.);
#669=ADVANCED_FACE('',(#595),#35,.T.);
#670=ADVANCED_FACE('',(#596),#631,.F.);
#671=ADVANCED_FACE('',(#597),#12,.T.);
#672=ADVANCED_FACE('',(#598),#13,.T.);
#673=ADVANCED_FACE('',(#599),#632,.F.);
#674=ADVANCED_FACE('',(#600),#633,.F.);
#675=ADVANCED_FACE('',(#601),#14,.T.);
#676=ADVANCED_FACE('',(#602),#15,.T.);
#677=ADVANCED_FACE('',(#603),#634,.F.);
#678=ADVANCED_FACE('',(#604,#605),#16,.F.);
#679=ADVANCED_FACE('',(#606,#607),#17,.F.);
#680=ADVANCED_FACE('',(#608,#609),#18,.F.);
#681=ADVANCED_FACE('',(#610,#611),#19,.F.);
#682=CLOSED_SHELL('',(#635,#636,#637,#638,#639,#640,#641,#642,#643,#644,
#645,#646,#647,#648,#649,#650,#651,#652,#653,#654,#655,#656,#657,#658,#659,
#660,#661,#662,#663,#664,#665,#666,#667,#668,#669,#670,#671,#672,#673,#674,
#675,#676,#677,#678,#679,#680,#681));
#683=STYLED_ITEM('',(#684),#691);
#684=PRESENTATION_STYLE_ASSIGNMENT((#685));
#685=SURFACE_STYLE_USAGE(.BOTH.,#686);
#686=SURFACE_SIDE_STYLE('',(#687));
#687=SURFACE_STYLE_FILL_AREA(#688);
#688=FILL_AREA_STYLE('',(#689));
#689=FILL_AREA_STYLE_COLOUR('',#690);
#690=COLOUR_RGB('',0.980392156862745,0.713725490196078,0.00392156862745098);
#691=MANIFOLD_SOLID_BREP('Part 156',#682);
#692=SHAPE_DEFINITION_REPRESENTATION(#1200,#693);
#693=SHAPE_REPRESENTATION('Part 156',(#694),#1195);
#694=AXIS2_PLACEMENT_3D('',#1002,#782,#783);
#695=AXIS2_PLACEMENT_3D('',#1003,#784,#785);
#696=AXIS2_PLACEMENT_3D('',#1012,#790,#791);
#697=AXIS2_PLACEMENT_3D('',#1021,#796,#797);
#698=AXIS2_PLACEMENT_3D('',#1030,#802,#803);
#699=AXIS2_PLACEMENT_3D('',#1039,#808,#809);
#700=AXIS2_PLACEMENT_3D('',#1040,#810,#811);
#701=AXIS2_PLACEMENT_3D('',#1041,#812,#813);
#702=AXIS2_PLACEMENT_3D('',#1042,#814,#815);
#703=AXIS2_PLACEMENT_3D('',#1043,#816,#817);
#704=AXIS2_PLACEMENT_3D('',#1044,#818,#819);
#705=AXIS2_PLACEMENT_3D('',#1045,#820,#821);
#706=AXIS2_PLACEMENT_3D('',#1047,#822,#823);
#707=AXIS2_PLACEMENT_3D('',#1049,#824,#825);
#708=AXIS2_PLACEMENT_3D('',#1051,#826,#827);
#709=AXIS2_PLACEMENT_3D('',#1053,#828,#829);
#710=AXIS2_PLACEMENT_3D('',#1054,#830,#831);
#711=AXIS2_PLACEMENT_3D('',#1055,#832,#833);
#712=AXIS2_PLACEMENT_3D('',#1056,#834,#835);
#713=AXIS2_PLACEMENT_3D('',#1060,#837,#838);
#714=AXIS2_PLACEMENT_3D('',#1064,#840,#841);
#715=AXIS2_PLACEMENT_3D('',#1068,#843,#844);
#716=AXIS2_PLACEMENT_3D('',#1072,#846,#847);
#717=AXIS2_PLACEMENT_3D('',#1073,#848,#849);
#718=AXIS2_PLACEMENT_3D('',#1079,#853,#854);
#719=AXIS2_PLACEMENT_3D('',#1085,#858,#859);
#720=AXIS2_PLACEMENT_3D('',#1091,#863,#864);
#721=AXIS2_PLACEMENT_3D('',#1097,#868,#869);
#722=AXIS2_PLACEMENT_3D('',#1098,#870,#871);
#723=AXIS2_PLACEMENT_3D('',#1103,#873,#874);
#724=AXIS2_PLACEMENT_3D('',#1107,#876,#877);
#725=AXIS2_PLACEMENT_3D('',#1111,#879,#880);
#726=AXIS2_PLACEMENT_3D('',#1114,#882,#883);
#727=AXIS2_PLACEMENT_3D('',#1115,#884,#885);
#728=AXIS2_PLACEMENT_3D('',#1116,#886,#887);
#729=AXIS2_PLACEMENT_3D('',#1117,#888,#889);
#730=AXIS2_PLACEMENT_3D('',#1118,#890,#891);
#731=AXIS2_PLACEMENT_3D('',#1119,#892,#893);
#732=AXIS2_PLACEMENT_3D('',#1121,#894,#895);
#733=AXIS2_PLACEMENT_3D('',#1123,#896,#897);
#734=AXIS2_PLACEMENT_3D('',#1124,#898,#899);
#735=AXIS2_PLACEMENT_3D('',#1126,#900,#901);
#736=AXIS2_PLACEMENT_3D('',#1127,#902,#903);
#737=AXIS2_PLACEMENT_3D('',#1129,#904,#905);
#738=AXIS2_PLACEMENT_3D('',#1131,#906,#907);
#739=AXIS2_PLACEMENT_3D('',#1132,#908,#909);
#740=AXIS2_PLACEMENT_3D('',#1134,#910,#911);
#741=AXIS2_PLACEMENT_3D('',#1135,#912,#913);
#742=AXIS2_PLACEMENT_3D('',#1137,#914,#915);
#743=AXIS2_PLACEMENT_3D('',#1139,#916,#917);
#744=AXIS2_PLACEMENT_3D('',#1140,#918,#919);
#745=AXIS2_PLACEMENT_3D('',#1142,#920,#921);
#746=AXIS2_PLACEMENT_3D('',#1143,#922,#923);
#747=AXIS2_PLACEMENT_3D('',#1145,#924,#925);
#748=AXIS2_PLACEMENT_3D('',#1147,#926,#927);
#749=AXIS2_PLACEMENT_3D('',#1148,#928,#929);
#750=AXIS2_PLACEMENT_3D('',#1150,#930,#931);
#751=AXIS2_PLACEMENT_3D('',#1151,#932,#933);
#752=AXIS2_PLACEMENT_3D('',#1153,#934,#935);
#753=AXIS2_PLACEMENT_3D('',#1154,#936,#937);
#754=AXIS2_PLACEMENT_3D('',#1155,#938,#939);
#755=AXIS2_PLACEMENT_3D('',#1157,#940,#941);
#756=AXIS2_PLACEMENT_3D('',#1158,#942,#943);
#757=AXIS2_PLACEMENT_3D('',#1159,#944,#945);
#758=AXIS2_PLACEMENT_3D('',#1161,#946,#947);
#759=AXIS2_PLACEMENT_3D('',#1162,#948,#949);
#760=AXIS2_PLACEMENT_3D('',#1163,#950,#951);
#761=AXIS2_PLACEMENT_3D('',#1165,#952,#953);
#762=AXIS2_PLACEMENT_3D('',#1166,#954,#955);
#763=AXIS2_PLACEMENT_3D('',#1167,#956,#957);
#764=AXIS2_PLACEMENT_3D('',#1168,#958,#959);
#765=AXIS2_PLACEMENT_3D('',#1169,#960,#961);
#766=AXIS2_PLACEMENT_3D('',#1170,#962,#963);
#767=AXIS2_PLACEMENT_3D('',#1171,#964,#965);
#768=AXIS2_PLACEMENT_3D('',#1172,#966,#967);
#769=AXIS2_PLACEMENT_3D('',#1173,#968,#969);
#770=AXIS2_PLACEMENT_3D('',#1174,#970,#971);
#771=AXIS2_PLACEMENT_3D('',#1177,#974,#975);
#772=AXIS2_PLACEMENT_3D('',#1179,#977,#978);
#773=AXIS2_PLACEMENT_3D('',#1181,#980,#981);
#774=AXIS2_PLACEMENT_3D('',#1183,#983,#984);
#775=AXIS2_PLACEMENT_3D('',#1185,#986,#987);
#776=AXIS2_PLACEMENT_3D('',#1187,#989,#990);
#777=AXIS2_PLACEMENT_3D('',#1189,#992,#993);
#778=AXIS2_PLACEMENT_3D('',#1190,#994,#995);
#779=AXIS2_PLACEMENT_3D('',#1191,#996,#997);
#780=AXIS2_PLACEMENT_3D('',#1192,#998,#999);
#781=AXIS2_PLACEMENT_3D('',#1193,#1000,#1001);
#782=DIRECTION('',(0.,0.,1.));
#783=DIRECTION('',(1.,0.,0.));
#784=DIRECTION('',(0.,1.,0.));
#785=DIRECTION('',(0.,0.,1.));
#786=DIRECTION('',(-1.,0.,0.));
#787=DIRECTION('',(0.,0.,-1.));
#788=DIRECTION('',(-1.,0.,0.));
#789=DIRECTION('',(0.,0.,-1.));
#790=DIRECTION('',(-1.,0.,0.));
#791=DIRECTION('',(0.,0.,1.));
#792=DIRECTION('',(0.,-1.,0.));
#793=DIRECTION('',(0.,0.,-1.));
#794=DIRECTION('',(0.,-1.,0.));
#795=DIRECTION('',(0.,0.,-1.));
#796=DIRECTION('',(0.,-1.,0.));
#797=DIRECTION('',(0.,0.,-1.));
#798=DIRECTION('',(1.,0.,0.));
#799=DIRECTION('',(0.,0.,-1.));
#800=DIRECTION('',(1.,0.,0.));
#801=DIRECTION('',(0.,0.,-1.));
#802=DIRECTION('',(1.,0.,0.));
#803=DIRECTION('',(0.,0.,-1.));
#804=DIRECTION('',(0.,1.,0.));
#805=DIRECTION('',(0.,0.,-1.));
#806=DIRECTION('',(0.,1.,0.));
#807=DIRECTION('',(0.,0.,-1.));
#808=DIRECTION('',(0.,0.,1.));
#809=DIRECTION('',(1.,0.,0.));
#810=DIRECTION('',(0.,0.,1.));
#811=DIRECTION('',(1.,0.,0.));
#812=DIRECTION('',(0.,0.,1.));
#813=DIRECTION('',(1.,0.,0.));
#814=DIRECTION('',(0.,0.,1.));
#815=DIRECTION('',(1.,0.,0.));
#816=DIRECTION('',(0.,0.,1.));
#817=DIRECTION('',(1.,0.,0.));
#818=DIRECTION('',(0.,0.,1.));
#819=DIRECTION('',(1.,0.,0.));
#820=DIRECTION('',(0.,0.,1.));
#821=DIRECTION('',(1.,0.,0.));
#822=DIRECTION('',(0.,0.,1.));
#823=DIRECTION('',(1.,0.,0.));
#824=DIRECTION('',(0.,0.,1.));
#825=DIRECTION('',(1.,0.,0.));
#826=DIRECTION('',(0.,0.,1.));
#827=DIRECTION('',(1.,0.,0.));
#828=DIRECTION('',(0.,0.,1.));
#829=DIRECTION('',(1.,0.,0.));
#830=DIRECTION('',(0.,0.,1.));
#831=DIRECTION('',(1.,0.,0.));
#832=DIRECTION('',(0.,0.,1.));
#833=DIRECTION('',(1.,0.,0.));
#834=DIRECTION('',(0.,0.,1.));
#835=DIRECTION('',(1.,0.,0.));
#836=DIRECTION('',(0.,1.,0.));
#837=DIRECTION('',(0.,0.,1.));
#838=DIRECTION('',(1.,0.,0.));
#839=DIRECTION('',(-1.,0.,0.));
#840=DIRECTION('',(0.,0.,1.));
#841=DIRECTION('',(1.,0.,0.));
#842=DIRECTION('',(0.,-1.,0.));
#843=DIRECTION('',(0.,0.,1.));
#844=DIRECTION('',(1.,0.,0.));
#845=DIRECTION('',(1.,0.,0.));
#846=DIRECTION('',(0.,0.,1.));
#847=DIRECTION('',(1.,0.,0.));
#848=DIRECTION('',(0.,1.,0.));
#849=DIRECTION('',(0.,0.,1.));
#850=DIRECTION('',(0.,0.,1.));
#851=DIRECTION('',(1.,0.,0.));
#852=DIRECTION('',(0.,0.,1.));
#853=DIRECTION('',(-1.,0.,0.));
#854=DIRECTION('',(0.,0.,1.));
#855=DIRECTION('',(0.,0.,1.));
#856=DIRECTION('',(0.,1.,0.));
#857=DIRECTION('',(0.,0.,1.));
#858=DIRECTION('',(0.,-1.,0.));
#859=DIRECTION('',(0.,0.,-1.));
#860=DIRECTION('',(0.,0.,1.));
#861=DIRECTION('',(-1.,0.,0.));
#862=DIRECTION('',(0.,0.,1.));
#863=DIRECTION('',(1.,0.,0.));
#864=DIRECTION('',(0.,0.,-1.));
#865=DIRECTION('',(0.,0.,1.));
#866=DIRECTION('',(0.,-1.,0.));
#867=DIRECTION('',(0.,0.,1.));
#868=DIRECTION('',(0.,0.,1.));
#869=DIRECTION('',(1.,0.,0.));
#870=DIRECTION('',(0.,0.,1.));
#871=DIRECTION('',(1.,0.,0.));
#872=DIRECTION('',(0.,1.,0.));
#873=DIRECTION('',(0.,0.,1.));
#874=DIRECTION('',(1.,0.,0.));
#875=DIRECTION('',(1.,0.,0.));
#876=DIRECTION('',(0.,0.,1.));
#877=DIRECTION('',(1.,0.,0.));
#878=DIRECTION('',(0.,-1.,0.));
#879=DIRECTION('',(0.,0.,1.));
#880=DIRECTION('',(1.,0.,0.));
#881=DIRECTION('',(-1.,0.,0.));
#882=DIRECTION('',(0.,0.,-1.));
#883=DIRECTION('',(-1.,0.,0.));
#884=DIRECTION('',(0.,0.,-1.));
#885=DIRECTION('',(-1.,0.,0.));
#886=DIRECTION('',(0.,0.,-1.));
#887=DIRECTION('',(-1.,0.,0.));
#888=DIRECTION('',(0.,0.,-1.));
#889=DIRECTION('',(-1.,0.,0.));
#890=DIRECTION('',(0.,0.,1.));
#891=DIRECTION('',(1.,0.,0.));
#892=DIRECTION('',(0.,0.,1.));
#893=DIRECTION('',(1.,0.,0.));
#894=DIRECTION('',(0.,0.,1.));
#895=DIRECTION('',(1.,0.,0.));
#896=DIRECTION('',(0.,0.,1.));
#897=DIRECTION('',(1.,0.,0.));
#898=DIRECTION('',(0.,0.,1.));
#899=DIRECTION('',(1.,0.,0.));
#900=DIRECTION('',(0.,0.,1.));
#901=DIRECTION('',(1.,0.,0.));
#902=DIRECTION('',(0.,0.,1.));
#903=DIRECTION('',(1.,0.,0.));
#904=DIRECTION('',(0.,0.,1.));
#905=DIRECTION('',(1.,0.,0.));
#906=DIRECTION('',(0.,0.,1.));
#907=DIRECTION('',(1.,0.,0.));
#908=DIRECTION('',(0.,0.,1.));
#909=DIRECTION('',(1.,0.,0.));
#910=DIRECTION('',(0.,0.,1.));
#911=DIRECTION('',(1.,0.,0.));
#912=DIRECTION('',(0.,0.,1.));
#913=DIRECTION('',(1.,0.,0.));
#914=DIRECTION('',(0.,0.,1.));
#915=DIRECTION('',(1.,0.,0.));
#916=DIRECTION('',(0.,0.,1.));
#917=DIRECTION('',(1.,0.,0.));
#918=DIRECTION('',(0.,0.,1.));
#919=DIRECTION('',(1.,0.,0.));
#920=DIRECTION('',(0.,0.,1.));
#921=DIRECTION('',(1.,0.,0.));
#922=DIRECTION('',(0.,0.,1.));
#923=DIRECTION('',(1.,0.,0.));
#924=DIRECTION('',(0.,0.,1.));
#925=DIRECTION('',(1.,0.,0.));
#926=DIRECTION('',(0.,0.,1.));
#927=DIRECTION('',(1.,0.,0.));
#928=DIRECTION('',(0.,0.,1.));
#929=DIRECTION('',(1.,0.,0.));
#930=DIRECTION('',(0.,0.,1.));
#931=DIRECTION('',(1.,0.,0.));
#932=DIRECTION('',(0.,0.,1.));
#933=DIRECTION('',(1.,0.,0.));
#934=DIRECTION('',(0.,0.,-1.));
#935=DIRECTION('',(-1.,0.,0.));
#936=DIRECTION('',(0.,0.,1.));
#937=DIRECTION('',(1.,0.,0.));
#938=DIRECTION('',(0.,0.,1.));
#939=DIRECTION('',(1.,0.,0.));
#940=DIRECTION('',(0.,0.,-1.));
#941=DIRECTION('',(-1.,0.,0.));
#942=DIRECTION('',(0.,0.,1.));
#943=DIRECTION('',(1.,0.,0.));
#944=DIRECTION('',(0.,0.,1.));
#945=DIRECTION('',(1.,0.,0.));
#946=DIRECTION('',(0.,0.,-1.));
#947=DIRECTION('',(-1.,0.,0.));
#948=DIRECTION('',(0.,0.,1.));
#949=DIRECTION('',(1.,0.,0.));
#950=DIRECTION('',(0.,0.,1.));
#951=DIRECTION('',(1.,0.,0.));
#952=DIRECTION('',(0.,0.,-1.));
#953=DIRECTION('',(-1.,0.,0.));
#954=DIRECTION('',(0.,0.,1.));
#955=DIRECTION('',(1.,0.,0.));
#956=DIRECTION('',(0.,0.,1.));
#957=DIRECTION('',(1.,0.,0.));
#958=DIRECTION('',(0.,0.,1.));
#959=DIRECTION('',(1.,0.,0.));
#960=DIRECTION('',(0.,0.,1.));
#961=DIRECTION('',(1.,0.,0.));
#962=DIRECTION('',(0.,0.,1.));
#963=DIRECTION('',(1.,0.,0.));
#964=DIRECTION('',(0.,0.,1.));
#965=DIRECTION('',(1.,0.,0.));
#966=DIRECTION('',(0.,0.,1.));
#967=DIRECTION('',(1.,0.,0.));
#968=DIRECTION('',(0.,0.,1.));
#969=DIRECTION('',(1.,0.,0.));
#970=DIRECTION('',(-0.70710678118655,0.,0.707106781186545));
#971=DIRECTION('',(0.,-1.,0.));
#972=DIRECTION('',(-0.707106781186545,0.,-0.70710678118655));
#973=DIRECTION('',(0.707106781186545,0.,0.70710678118655));
#974=DIRECTION('',(0.,0.,1.));
#975=DIRECTION('',(1.,0.,0.));
#976=DIRECTION('',(0.,-0.707106781186545,0.70710678118655));
#977=DIRECTION('',(0.,0.,1.));
#978=DIRECTION('',(1.,0.,0.));
#979=DIRECTION('',(0.,-0.707106781186545,-0.70710678118655));
#980=DIRECTION('',(0.,0.70710678118655,0.707106781186545));
#981=DIRECTION('',(-1.,0.,0.));
#982=DIRECTION('',(0.,-0.707106781186545,0.70710678118655));
#983=DIRECTION('',(0.,-0.707106781186551,0.707106781186544));
#984=DIRECTION('',(1.,0.,0.));
#985=DIRECTION('',(0.,-0.707106781186544,-0.707106781186551));
#986=DIRECTION('',(0.,0.,1.));
#987=DIRECTION('',(1.,0.,0.));
#988=DIRECTION('',(-0.707106781186545,0.,0.70710678118655));
#989=DIRECTION('',(0.,0.,1.));
#990=DIRECTION('',(1.,0.,0.));
#991=DIRECTION('',(0.707106781186545,0.,-0.70710678118655));
#992=DIRECTION('',(0.70710678118655,0.,0.707106781186545));
#993=DIRECTION('',(0.,1.,0.));
#994=DIRECTION('',(0.,0.,1.));
#995=DIRECTION('',(1.,0.,0.));
#996=DIRECTION('',(0.,0.,1.));
#997=DIRECTION('',(1.,0.,0.));
#998=DIRECTION('',(0.,0.,1.));
#999=DIRECTION('',(1.,0.,0.));
#1000=DIRECTION('',(0.,0.,1.));
#1001=DIRECTION('',(1.,0.,0.));
#1002=CARTESIAN_POINT('',(0.,0.,0.));
#1003=CARTESIAN_POINT('',(74.21,-109.377,-14.));
#1004=CARTESIAN_POINT('',(74.21,-109.377,-12.));
#1005=CARTESIAN_POINT('',(114.987718676731,-109.377,-12.));
#1006=CARTESIAN_POINT('',(33.432281323269,-109.377,-12.));
#1007=CARTESIAN_POINT('',(33.432281323269,-109.377,0.));
#1008=CARTESIAN_POINT('',(33.432281323269,-109.377,0.));
#1009=CARTESIAN_POINT('',(74.21,-109.377,0.));
#1010=CARTESIAN_POINT('',(114.987718676731,-109.377,0.));
#1011=CARTESIAN_POINT('',(114.987718676731,-109.377,0.));
#1012=CARTESIAN_POINT('',(119.86,-67.177,-14.));
#1013=CARTESIAN_POINT('',(119.86,-67.177,-12.));
#1014=CARTESIAN_POINT('',(119.86,-29.849281323269,-12.));
#1015=CARTESIAN_POINT('',(119.86,-104.504718676731,-12.));
#1016=CARTESIAN_POINT('',(119.86,-104.504718676731,0.));
#1017=CARTESIAN_POINT('',(119.86,-104.504718676731,0.));
#1018=CARTESIAN_POINT('',(119.86,-67.177,0.));
#1019=CARTESIAN_POINT('',(119.86,-29.849281323269,0.));
#1020=CARTESIAN_POINT('',(119.86,-29.849281323269,0.));
#1021=CARTESIAN_POINT('',(74.21,-24.977,-14.));
#1022=CARTESIAN_POINT('',(74.21,-24.977,0.));
#1023=CARTESIAN_POINT('',(33.432281323269,-24.977,0.));
#1024=CARTESIAN_POINT('',(114.987718676731,-24.977,0.));
#1025=CARTESIAN_POINT('',(33.432281323269,-24.977,0.));
#1026=CARTESIAN_POINT('',(33.432281323269,-24.977,-12.));
#1027=CARTESIAN_POINT('',(74.21,-24.977,-12.));
#1028=CARTESIAN_POINT('',(114.987718676731,-24.977,-12.));
#1029=CARTESIAN_POINT('',(114.987718676731,-24.977,0.));
#1030=CARTESIAN_POINT('',(28.56,-67.177,-14.));
#1031=CARTESIAN_POINT('',(28.56,-67.177,-12.));
#1032=CARTESIAN_POINT('',(28.56,-104.504718676731,-12.));
#1033=CARTESIAN_POINT('',(28.56,-29.849281323269,-12.));
#1034=CARTESIAN_POINT('',(28.56,-29.849281323269,0.));
#1035=CARTESIAN_POINT('',(28.56,-29.849281323269,0.));
#1036=CARTESIAN_POINT('',(28.56,-67.177,0.));
#1037=CARTESIAN_POINT('',(28.56,-104.504718676731,0.));
#1038=CARTESIAN_POINT('',(28.56,-104.504718676731,0.));
#1039=CARTESIAN_POINT('',(74.21,-67.177,-12.));
#1040=CARTESIAN_POINT('',(30.56,-26.977,-12.));
#1041=CARTESIAN_POINT('',(30.56,-107.377,-12.));
#1042=CARTESIAN_POINT('',(117.86,-107.377,-12.));
#1043=CARTESIAN_POINT('',(117.86,-26.977,-12.));
#1044=CARTESIAN_POINT('',(74.21,-67.177,0.));
#1045=CARTESIAN_POINT('',(30.56,-26.977,0.));
#1046=CARTESIAN_POINT('',(33.16,-26.977,0.));
#1047=CARTESIAN_POINT('',(117.86,-26.977,0.));
#1048=CARTESIAN_POINT('',(120.46,-26.977,0.));
#1049=CARTESIAN_POINT('',(117.86,-107.377,0.));
#1050=CARTESIAN_POINT('',(120.46,-107.377,0.));
#1051=CARTESIAN_POINT('',(30.56,-107.377,0.));
#1052=CARTESIAN_POINT('',(33.16,-107.377,0.));
#1053=CARTESIAN_POINT('',(117.86,-26.977,0.));
#1054=CARTESIAN_POINT('',(117.86,-107.377,0.));
#1055=CARTESIAN_POINT('',(30.56,-107.377,0.));
#1056=CARTESIAN_POINT('',(30.56,-26.977,0.));
#1057=CARTESIAN_POINT('',(26.56,-67.177,0.));
#1058=CARTESIAN_POINT('',(26.56,-110.377,0.));
#1059=CARTESIAN_POINT('',(26.56,-23.977,0.));
#1060=CARTESIAN_POINT('',(27.56,-110.377,0.));
#1061=CARTESIAN_POINT('',(27.56,-111.377,0.));
#1062=CARTESIAN_POINT('',(74.21,-111.377,0.));
#1063=CARTESIAN_POINT('',(120.86,-111.377,0.));
#1064=CARTESIAN_POINT('',(120.86,-110.377,0.));
#1065=CARTESIAN_POINT('',(121.86,-110.377,0.));
#1066=CARTESIAN_POINT('',(121.86,-67.177,0.));
#1067=CARTESIAN_POINT('',(121.86,-23.977,0.));
#1068=CARTESIAN_POINT('',(120.86,-23.977,0.));
#1069=CARTESIAN_POINT('',(120.86,-22.977,0.));
#1070=CARTESIAN_POINT('',(74.21,-22.977,0.));
#1071=CARTESIAN_POINT('',(27.56,-22.977,0.));
#1072=CARTESIAN_POINT('',(27.56,-23.977,0.));
#1073=CARTESIAN_POINT('',(74.21,-111.377,-14.));
#1074=CARTESIAN_POINT('',(27.56,-111.377,-14.));
#1075=CARTESIAN_POINT('',(27.56,-111.377,-13.2));
#1076=CARTESIAN_POINT('',(74.21,-111.377,-13.2));
#1077=CARTESIAN_POINT('',(120.86,-111.377,-13.2));
#1078=CARTESIAN_POINT('',(120.86,-111.377,-14.));
#1079=CARTESIAN_POINT('',(121.86,-67.177,-14.));
#1080=CARTESIAN_POINT('',(121.86,-110.377,-14.));
#1081=CARTESIAN_POINT('',(121.86,-110.377,-13.2));
#1082=CARTESIAN_POINT('',(121.86,-67.177,-13.2));
#1083=CARTESIAN_POINT('',(121.86,-23.977,-13.2));
#1084=CARTESIAN_POINT('',(121.86,-23.977,-14.));
#1085=CARTESIAN_POINT('',(74.21,-22.977,-14.));
#1086=CARTESIAN_POINT('',(120.86,-22.977,-14.));
#1087=CARTESIAN_POINT('',(120.86,-22.977,-13.2));
#1088=CARTESIAN_POINT('',(74.21,-22.977,-13.2));
#1089=CARTESIAN_POINT('',(27.56,-22.977,-13.2));
#1090=CARTESIAN_POINT('',(27.56,-22.977,-14.));
#1091=CARTESIAN_POINT('',(26.56,-67.177,-14.));
#1092=CARTESIAN_POINT('',(26.56,-23.977,-14.));
#1093=CARTESIAN_POINT('',(26.56,-23.977,-13.2));
#1094=CARTESIAN_POINT('',(26.56,-67.177,-13.2));
#1095=CARTESIAN_POINT('',(26.56,-110.377,-13.2));
#1096=CARTESIAN_POINT('',(26.56,-110.377,-14.));
#1097=CARTESIAN_POINT('',(74.21,-67.177,-14.));
#1098=CARTESIAN_POINT('',(27.56,-110.377,-14.));
#1099=CARTESIAN_POINT('',(27.56,-110.577,-14.));
#1100=CARTESIAN_POINT('',(27.36,-110.377,-14.));
#1101=CARTESIAN_POINT('',(27.36,-67.177,-14.));
#1102=CARTESIAN_POINT('',(27.36,-23.977,-14.));
#1103=CARTESIAN_POINT('',(27.56,-23.977,-14.));
#1104=CARTESIAN_POINT('',(27.56,-23.777,-14.));
#1105=CARTESIAN_POINT('',(74.21,-23.777,-14.));
#1106=CARTESIAN_POINT('',(120.86,-23.777,-14.));
#1107=CARTESIAN_POINT('',(120.86,-23.977,-14.));
#1108=CARTESIAN_POINT('',(121.06,-23.977,-14.));
#1109=CARTESIAN_POINT('',(121.06,-67.177,-14.));
#1110=CARTESIAN_POINT('',(121.06,-110.377,-14.));
#1111=CARTESIAN_POINT('',(120.86,-110.377,-14.));
#1112=CARTESIAN_POINT('',(120.86,-110.577,-14.));
#1113=CARTESIAN_POINT('',(74.21,-110.577,-14.));
#1114=CARTESIAN_POINT('',(117.86,-26.977,0.));
#1115=CARTESIAN_POINT('',(117.86,-107.377,0.));
#1116=CARTESIAN_POINT('',(30.56,-107.377,0.));
#1117=CARTESIAN_POINT('',(30.56,-26.977,0.));
#1118=CARTESIAN_POINT('',(30.56,-26.977,-6.));
#1119=CARTESIAN_POINT('',(30.56,-26.977,-0.5));
#1120=CARTESIAN_POINT('',(32.66,-26.977,-0.5));
#1121=CARTESIAN_POINT('',(30.56,-26.977,-6.));
#1122=CARTESIAN_POINT('',(32.66,-26.977,-6.));
#1123=CARTESIAN_POINT('',(74.21,-67.177,-6.));
#1124=CARTESIAN_POINT('',(30.56,-26.977,-6.));
#1125=CARTESIAN_POINT('',(32.16,-26.977,-6.));
#1126=CARTESIAN_POINT('',(30.56,-107.377,-6.));
#1127=CARTESIAN_POINT('',(30.56,-107.377,-0.5));
#1128=CARTESIAN_POINT('',(32.66,-107.377,-0.5));
#1129=CARTESIAN_POINT('',(30.56,-107.377,-6.));
#1130=CARTESIAN_POINT('',(32.66,-107.377,-6.));
#1131=CARTESIAN_POINT('',(74.21,-67.177,-6.));
#1132=CARTESIAN_POINT('',(30.56,-107.377,-6.));
#1133=CARTESIAN_POINT('',(32.16,-107.377,-6.));
#1134=CARTESIAN_POINT('',(117.86,-107.377,-6.));
#1135=CARTESIAN_POINT('',(117.86,-107.377,-0.5));
#1136=CARTESIAN_POINT('',(119.96,-107.377,-0.5));
#1137=CARTESIAN_POINT('',(117.86,-107.377,-6.));
#1138=CARTESIAN_POINT('',(119.96,-107.377,-6.));
#1139=CARTESIAN_POINT('',(74.21,-67.177,-6.));
#1140=CARTESIAN_POINT('',(117.86,-107.377,-6.));
#1141=CARTESIAN_POINT('',(119.46,-107.377,-6.));
#1142=CARTESIAN_POINT('',(117.86,-26.977,-6.));
#1143=CARTESIAN_POINT('',(117.86,-26.977,-0.5));
#1144=CARTESIAN_POINT('',(119.96,-26.977,-0.5));
#1145=CARTESIAN_POINT('',(117.86,-26.977,-6.));
#1146=CARTESIAN_POINT('',(119.96,-26.977,-6.));
#1147=CARTESIAN_POINT('',(74.21,-67.177,-6.));
#1148=CARTESIAN_POINT('',(117.86,-26.977,-6.));
#1149=CARTESIAN_POINT('',(119.46,-26.977,-6.));
#1150=CARTESIAN_POINT('',(74.21,-67.177,-12.));
#1151=CARTESIAN_POINT('',(30.56,-26.977,-12.));
#1152=CARTESIAN_POINT('',(32.16,-26.977,-12.));
#1153=CARTESIAN_POINT('',(30.56,-26.977,0.));
#1154=CARTESIAN_POINT('',(74.21,-67.177,-12.));
#1155=CARTESIAN_POINT('',(30.56,-107.377,-12.));
#1156=CARTESIAN_POINT('',(32.16,-107.377,-12.));
#1157=CARTESIAN_POINT('',(30.56,-107.377,0.));
#1158=CARTESIAN_POINT('',(74.21,-67.177,-12.));
#1159=CARTESIAN_POINT('',(117.86,-107.377,-12.));
#1160=CARTESIAN_POINT('',(119.46,-107.377,-12.));
#1161=CARTESIAN_POINT('',(117.86,-107.377,0.));
#1162=CARTESIAN_POINT('',(74.21,-67.177,-12.));
#1163=CARTESIAN_POINT('',(117.86,-26.977,-12.));
#1164=CARTESIAN_POINT('',(119.46,-26.977,-12.));
#1165=CARTESIAN_POINT('',(117.86,-26.977,0.));
#1166=CARTESIAN_POINT('',(27.56,-110.377,-14.));
#1167=CARTESIAN_POINT('',(27.56,-110.377,-13.2));
#1168=CARTESIAN_POINT('',(27.56,-23.977,-14.));
#1169=CARTESIAN_POINT('',(27.56,-23.977,-13.2));
#1170=CARTESIAN_POINT('',(120.86,-23.977,-14.));
#1171=CARTESIAN_POINT('',(120.86,-23.977,-13.2));
#1172=CARTESIAN_POINT('',(120.86,-110.377,-14.));
#1173=CARTESIAN_POINT('',(120.86,-110.377,-13.2));
#1174=CARTESIAN_POINT('',(121.06,-67.177,-14.));
#1175=CARTESIAN_POINT('',(121.86,-23.977,-13.2));
#1176=CARTESIAN_POINT('',(121.06,-110.377,-14.));
#1177=CARTESIAN_POINT('',(120.86,-110.377,-14.));
#1178=CARTESIAN_POINT('',(120.86,-110.577,-14.));
#1179=CARTESIAN_POINT('',(120.86,-23.977,-14.));
#1180=CARTESIAN_POINT('',(120.86,-22.977,-13.2));
#1181=CARTESIAN_POINT('',(74.21,-110.577,-14.));
#1182=CARTESIAN_POINT('',(27.56,-110.577,-14.));
#1183=CARTESIAN_POINT('',(74.21,-23.777,-14.));
#1184=CARTESIAN_POINT('',(27.56,-22.977,-13.2));
#1185=CARTESIAN_POINT('',(27.56,-110.377,-14.));
#1186=CARTESIAN_POINT('',(27.36,-110.377,-14.));
#1187=CARTESIAN_POINT('',(27.56,-23.977,-14.));
#1188=CARTESIAN_POINT('',(26.56,-23.977,-13.2));
#1189=CARTESIAN_POINT('',(27.36,-67.177,-14.));
#1190=CARTESIAN_POINT('',(30.56,-26.977,-0.5));
#1191=CARTESIAN_POINT('',(117.86,-26.977,-0.5));
#1192=CARTESIAN_POINT('',(117.86,-107.377,-0.5));
#1193=CARTESIAN_POINT('',(30.56,-107.377,-0.5));
#1194=MECHANICAL_DESIGN_GEOMETRIC_PRESENTATION_REPRESENTATION('',(#683),
#1195);
#1195=(
GEOMETRIC_REPRESENTATION_CONTEXT(3)
GLOBAL_UNCERTAINTY_ASSIGNED_CONTEXT((#1196))
GLOBAL_UNIT_ASSIGNED_CONTEXT((#1199,#1198,#1197))
REPRESENTATION_CONTEXT('Part 156','TOP_LEVEL_ASSEMBLY_PART')
);
#1196=UNCERTAINTY_MEASURE_WITH_UNIT(LENGTH_MEASURE(1.E-5),#1199,
'DISTANCE_ACCURACY_VALUE','Maximum Tolerance applied to model');
#1197=(
NAMED_UNIT(*)
SI_UNIT($,.STERADIAN.)
SOLID_ANGLE_UNIT()
);
#1198=(
NAMED_UNIT(*)
PLANE_ANGLE_UNIT()
SI_UNIT($,.RADIAN.)
);
#1199=(
LENGTH_UNIT()
NAMED_UNIT(*)
SI_UNIT(.MILLI.,.METRE.)
);
#1200=PRODUCT_DEFINITION_SHAPE('','',#1201);
#1201=PRODUCT_DEFINITION('','',#1203,#1202);
#1202=PRODUCT_DEFINITION_CONTEXT('',#1209,'design');
#1203=PRODUCT_DEFINITION_FORMATION_WITH_SPECIFIED_SOURCE('','',#1205,
 .NOT_KNOWN.);
#1204=PRODUCT_RELATED_PRODUCT_CATEGORY('','',(#1205));
#1205=PRODUCT('Part 156','Part 156','Part 156',(#1207));
#1206=PRODUCT_CATEGORY('','');
#1207=PRODUCT_CONTEXT('',#1209,'mechanical');
#1208=APPLICATION_PROTOCOL_DEFINITION('international standard',
'ap242_managed_model_based_3d_engineering',2020,#1209);
#1209=APPLICATION_CONTEXT('managed model based 3d engineering');
ENDSEC;
END-ISO-10303-21;
